<?xml version="1.0" encoding="utf-8"?>
<!-- Generator: Adobe Illustrator 16.0.4, SVG Export Plug-In . SVG Version: 6.00 Build 0)  -->
<!DOCTYPE svg PUBLIC "-//W3C//DTD SVG 1.1//EN" "http://www.w3.org/Graphics/SVG/1.1/DTD/svg11.dtd">
<svg version="1.1" id="Ebene_1" xmlns="http://www.w3.org/2000/svg" xmlns:xlink="http://www.w3.org/1999/xlink" x="0px" y="0px"
	 width="33.018px" height="34.753px" viewBox="0 0 33.018 34.753" enable-background="new 0 0 33.018 34.753" xml:space="preserve">
<path fill="#FFFFFF" d="M-213.543,77.101l5.936,8.661c0.443,0.643,1.251,0.925,1.997,0.692c0.747-0.23,1.255-0.92,1.255-1.7v-54.68
	c0-3.301,2.341-5.971,5.238-5.799c2.694,0.146,4.575,2.533,4.575,5.799v22.906c-0.025,0.121-0.042,0.246-0.042,0.377v17.816
	c0,0.984,0.798,1.783,1.782,1.783c0.984,0,1.783-0.799,1.783-1.783V57.332c1.018-2.247,2.918-3.641,5.022-3.641
	c2.347,0,4.436,1.719,5.326,4.379v15.48c0,0.983,0.797,1.78,1.781,1.78s1.782-0.797,1.782-1.78V57.777
	c1.062-1.967,2.853-3.175,4.792-3.175c2.619,0,4.891,2.146,5.555,5.229v16.615c0,0.984,0.797,1.782,1.781,1.782
	s1.783-0.798,1.783-1.782V60.161c1.066-1.225,2.475-1.92,3.936-1.92c3.172,0,5.752,3.135,5.752,6.989v30.293
	c0,7.363-3.543,19.653-11.406,24.361h-27.299c-6.768-1.823-13.52-11.881-13.615-12.022c-0.27-0.388-12.351-18.115-18.678-27.399
	c-0.839-1.297-1.268-2.644-1.206-3.79c0.178-3.285,2.647-4.58,3.14-4.807c0.616-0.282,1.248-0.425,1.878-0.425
	c0.915,0,1.573,0.293,1.883,0.47C-217.221,72.807-214.556,75.538-213.543,77.101z"/>
<path fill="#FFFFFF" d="M2.441,20.224c-0.395,0.195-0.745,0.474-1.034,0.831c-0.635,0.779-1.09,2.133-0.459,3.596
	c0.286,0.668,0.86,1.289,1.631,1.748c9.566,5.399,10.918,6.159,11.125,6.277l0,0c0.188,0.108,4.623,2.654,7.789,1.955
	c0.056-0.012,0.105-0.033,0.155-0.058l9.655-4.768c0.107-0.052,0.197-0.132,0.259-0.226c2.484-3.594,1.312-9.189-0.016-11.873
	L26.385,7.26c-0.99-2.006-3.237-2.929-5.008-2.052c-0.616,0.303-1.112,0.797-1.439,1.412c-1.105-0.83-2.505-1.025-3.683-0.444
	c-0.849,0.42-1.459,1.188-1.726,2.126c-1.013-0.531-2.172-0.589-3.146-0.108c-0.618,0.305-1.11,0.802-1.438,1.416L6.249,2.123
	c-0.88-1.783-2.702-2.567-4.333-1.87C0.161,0.997-0.5,3.174,0.406,5.009l8.334,16.876L7.163,21C6.4,20.544,4.787,19.975,3.85,19.924
	C3.383,19.897,2.881,20.006,2.441,20.224z"/>
<path fill="#000101" d="M2.441,20.224c-0.395,0.195-0.745,0.474-1.034,0.831c-0.635,0.779-1.09,2.133-0.459,3.596
	c0.286,0.668,0.86,1.289,1.631,1.748c9.566,5.399,10.919,6.159,11.124,6.277l0,0c0.188,0.108,4.624,2.654,7.789,1.957
	c0.056-0.014,0.105-0.035,0.155-0.06l9.655-4.768c0.107-0.052,0.197-0.132,0.259-0.226c2.484-3.594,1.312-9.189-0.016-11.873
	L26.385,7.26c-0.99-2.006-3.237-2.929-5.008-2.052c-0.616,0.303-1.112,0.797-1.439,1.412c-1.105-0.83-2.505-1.025-3.683-0.444
	c-0.85,0.421-1.458,1.188-1.727,2.126c-1.013-0.531-2.172-0.589-3.146-0.108c-0.618,0.305-1.11,0.802-1.437,1.416L6.249,2.123
	c-0.88-1.783-2.704-2.567-4.333-1.87C0.16,0.997-0.501,3.174,0.406,5.009L8.74,21.886L7.162,21C6.4,20.544,4.787,19.975,3.85,19.924
	C3.383,19.897,2.881,20.006,2.441,20.224z M6.476,22.186L10,24.162c0.26,0.145,0.587,0.104,0.805-0.1
	c0.219-0.207,0.276-0.532,0.144-0.801L1.634,4.402C1.073,3.265,1.424,1.943,2.458,1.511C3.409,1.104,4.464,1.604,5.02,2.73
	l3.902,7.9c0.009,0.048,0.027,0.094,0.049,0.137l3.036,6.146c0.167,0.339,0.579,0.478,0.919,0.309
	c0.338-0.167,0.477-0.577,0.31-0.916l-2.358-4.774c-0.031-0.948,0.387-1.754,1.113-2.112c0.81-0.4,1.819-0.161,2.582,0.603
	l2.636,5.339c0.168,0.339,0.579,0.477,0.922,0.308c0.335-0.166,0.475-0.577,0.307-0.916l-2.686-5.441
	c0.031-0.858,0.444-1.581,1.111-1.91c0.901-0.446,2.054-0.093,2.806,0.857l2.828,5.731c0.169,0.338,0.582,0.477,0.918,0.31
	c0.343-0.168,0.479-0.58,0.314-0.917l-2.772-5.618c0.159-0.604,0.527-1.083,1.026-1.331c1.098-0.542,2.518,0.102,3.174,1.43
	l5.159,10.447c1.257,2.54,2.128,7.382,0.22,10.343l-9.414,4.649c-2.647,0.524-6.688-1.795-6.744-1.829
	c-0.159-0.089-7.343-4.143-11.108-6.267c-0.51-0.304-0.89-0.696-1.061-1.101c-0.5-1.161,0.132-2.03,0.262-2.192
	c0.166-0.202,0.359-0.358,0.577-0.467c0.317-0.155,0.591-0.168,0.727-0.157C4.479,21.332,5.863,21.819,6.476,22.186z"/>
</svg>
