<?xml version="1.0" encoding="utf-8"?>
<!-- Generator: Adobe Illustrator 16.0.4, SVG Export Plug-In . SVG Version: 6.00 Build 0)  -->
<!DOCTYPE svg PUBLIC "-//W3C//DTD SVG 1.1//EN" "http://www.w3.org/Graphics/SVG/1.1/DTD/svg11.dtd">
<svg version="1.1" id="Ebene_1" xmlns="http://www.w3.org/2000/svg" xmlns:xlink="http://www.w3.org/1999/xlink" x="0px" y="0px"
	 width="27.026px" height="35px" viewBox="0 0 27.026 35" enable-background="new 0 0 27.026 35" xml:space="preserve">
<path fill="#FFFFFF" d="M-213.295,77.144l5.936,8.661c0.443,0.643,1.251,0.925,1.997,0.692c0.747-0.23,1.255-0.92,1.255-1.7v-54.68
	c0-3.301,2.341-5.971,5.238-5.799c2.694,0.146,4.575,2.533,4.575,5.799v22.906c-0.025,0.121-0.042,0.246-0.042,0.377v17.816
	c0,0.984,0.798,1.783,1.782,1.783c0.984,0,1.783-0.799,1.783-1.783V57.374c1.018-2.247,2.918-3.641,5.022-3.641
	c2.347,0,4.436,1.719,5.326,4.379v15.48c0,0.983,0.797,1.78,1.781,1.78s1.782-0.797,1.782-1.78V57.819
	c1.062-1.967,2.853-3.175,4.792-3.175c2.619,0,4.891,2.146,5.555,5.229v16.615c0,0.984,0.797,1.782,1.781,1.782
	s1.783-0.798,1.783-1.782V60.203c1.066-1.225,2.475-1.92,3.936-1.92c3.172,0,5.752,3.135,5.752,6.989v30.293
	c0,7.363-3.543,19.653-11.406,24.361h-27.299c-6.768-1.823-13.52-11.881-13.615-12.022c-0.27-0.388-12.351-18.115-18.678-27.399
	c-0.839-1.297-1.268-2.644-1.206-3.79c0.178-3.285,2.647-4.58,3.14-4.807c0.616-0.282,1.248-0.425,1.878-0.425
	c0.915,0,1.573,0.293,1.883,0.47C-216.973,72.85-214.308,75.58-213.295,77.144z"/>
<path fill="#FFFFFF" d="M2.925,16.07c-0.39,0-0.778,0.084-1.146,0.255c-0.81,0.37-1.702,1.267-1.775,2.675
	c-0.035,0.643,0.177,1.361,0.61,2.028c5.479,8.04,6.254,9.175,6.374,9.347l0,0c0.105,0.16,2.629,3.923,5.418,4.608
	C12.453,34.996,12.501,35,12.55,35h9.54c0.104,0,0.207-0.028,0.293-0.078c3.382-1.881,4.644-6.784,4.644-9.436v-10.32
	c0-1.981-1.424-3.595-3.175-3.595c-0.608,0-1.195,0.198-1.695,0.558c-0.554-1.093-1.588-1.797-2.751-1.797
	c-0.84,0-1.625,0.371-2.205,1.011c-0.596-0.818-1.494-1.319-2.455-1.319c-0.611,0-1.197,0.202-1.697,0.561V3.188
	c0-1.761-1.139-3.1-2.707-3.184C8.655-0.093,7.276,1.376,7.276,3.188V19.86L6.37,18.538c-0.427-0.661-1.484-1.745-2.208-2.153
	C3.802,16.18,3.36,16.07,2.925,16.07z"/>
<path fill="#000101" d="M2.925,16.07c-0.39,0-0.778,0.084-1.146,0.255c-0.81,0.37-1.702,1.267-1.775,2.675
	c-0.035,0.643,0.177,1.361,0.61,2.028c5.479,8.04,6.255,9.175,6.373,9.347l0,0c0.106,0.16,2.63,3.923,5.418,4.608
	C12.453,34.996,12.501,35,12.55,35h9.54c0.104,0,0.207-0.028,0.293-0.078c3.382-1.881,4.644-6.784,4.644-9.436v-10.32
	c0-1.981-1.424-3.595-3.175-3.595c-0.608,0-1.195,0.198-1.695,0.558c-0.554-1.093-1.588-1.797-2.751-1.797
	c-0.84,0-1.625,0.371-2.206,1.011c-0.596-0.818-1.494-1.319-2.455-1.319c-0.611,0-1.197,0.202-1.696,0.561V3.188
	c0-1.761-1.14-3.1-2.707-3.184C8.655-0.093,7.276,1.376,7.276,3.188V19.86L6.37,18.538c-0.426-0.661-1.484-1.745-2.208-2.153
	C3.802,16.18,3.36,16.07,2.925,16.07z M5.36,19.211l2.023,2.952c0.149,0.216,0.425,0.313,0.679,0.236
	c0.255-0.079,0.428-0.314,0.428-0.58V3.188c0-1.123,0.798-2.034,1.787-1.973c0.916,0.049,1.558,0.861,1.558,1.973v7.805
	c-0.011,0.042-0.015,0.085-0.015,0.128v6.071c0,0.335,0.273,0.606,0.609,0.606c0.334,0,0.605-0.271,0.605-0.606v-4.716
	c0.347-0.765,0.995-1.241,1.711-1.241c0.8,0,1.509,0.585,1.814,1.491v5.274c0,0.335,0.272,0.607,0.61,0.607
	c0.332,0,0.604-0.271,0.604-0.607v-5.374c0.361-0.669,0.973-1.082,1.631-1.082c0.891,0,1.668,0.732,1.892,1.781v5.662
	c0,0.334,0.273,0.606,0.606,0.606c0.338,0,0.608-0.272,0.608-0.606v-5.549c0.365-0.417,0.845-0.653,1.34-0.653
	c1.083,0,1.959,1.067,1.959,2.38v10.32c0,2.509-1.205,6.696-3.882,8.3h-9.302c-2.306-0.621-4.606-4.048-4.637-4.097
	c-0.092-0.132-4.207-6.171-6.363-9.333c-0.286-0.441-0.433-0.902-0.411-1.29c0.058-1.119,0.901-1.561,1.068-1.638
	c0.211-0.096,0.426-0.145,0.642-0.145c0.312,0,0.536,0.098,0.64,0.16C4.109,17.749,5.016,18.679,5.36,19.211z"/>
</svg>
