<?xml version="1.0" encoding="utf-8"?>
<!-- Generator: Adobe Illustrator 16.0.4, SVG Export Plug-In . SVG Version: 6.00 Build 0)  -->
<!DOCTYPE svg PUBLIC "-//W3C//DTD SVG 1.1//EN" "http://www.w3.org/Graphics/SVG/1.1/DTD/svg11.dtd">
<svg version="1.1" id="Ebene_1" xmlns="http://www.w3.org/2000/svg" xmlns:xlink="http://www.w3.org/1999/xlink" x="0px" y="0px"
	 width="38.5px" height="49.417px" viewBox="0 0 38.5 49.417" enable-background="new 0 0 38.5 49.417" xml:space="preserve">
<path fill="#000101" stroke="#000101" stroke-width="1.5" stroke-miterlimit="10" d="M4.755,22.75c-0.535,0-1.062,0.118-1.569,0.35
	c-1.107,0.507-2.328,1.736-2.432,3.663c-0.048,0.882,0.246,1.863,0.838,2.776c7.5,11.007,8.562,12.562,8.724,12.796l0,0
	c0.146,0.219,3.6,5.372,7.417,6.309c0.066,0.018,0.132,0.023,0.198,0.023H30.99c0.144,0,0.283-0.036,0.407-0.104
	c4.628-2.577,6.353-9.29,6.353-12.918V21.515c0-2.713-1.946-4.923-4.343-4.923c-0.835,0-1.638,0.271-2.324,0.765
	c-0.756-1.497-2.17-2.462-3.764-2.462c-1.152,0-2.228,0.508-3.022,1.385c-0.813-1.119-2.043-1.808-3.359-1.808
	c-0.836,0-1.639,0.276-2.323,0.768V5.119c0-2.411-1.559-4.247-3.706-4.363c-2.311-0.13-4.195,1.877-4.195,4.363V27.94l-1.241-1.81
	c-0.584-0.904-2.033-2.389-3.022-2.947C5.955,22.904,5.353,22.75,4.755,22.75z M8.09,27.051l2.769,4.041
	c0.206,0.297,0.583,0.431,0.931,0.322c0.349-0.106,0.586-0.43,0.586-0.793V5.119c0-1.539,1.09-2.785,2.443-2.704
	c1.257,0.068,2.133,1.182,2.133,2.704v10.682c-0.011,0.059-0.019,0.117-0.019,0.176v8.31c0,0.458,0.372,0.831,0.831,0.831
	s0.831-0.373,0.831-0.831v-6.456c0.474-1.048,1.362-1.698,2.343-1.698c1.094,0,2.067,0.802,2.485,2.042v7.22
	c0,0.458,0.37,0.831,0.831,0.831c0.457,0,0.83-0.372,0.83-0.831v-7.357c0.494-0.917,1.33-1.481,2.235-1.481
	c1.22,0,2.281,1.002,2.588,2.439v7.75c0,0.458,0.374,0.831,0.831,0.831c0.461,0,0.832-0.373,0.832-0.831v-7.596
	c0.499-0.571,1.154-0.896,1.837-0.896c1.479,0,2.68,1.462,2.68,3.26v14.129c0,3.434-1.649,9.166-5.317,11.361H18.037
	c-3.156-0.851-6.306-5.541-6.348-5.607c-0.126-0.182-5.761-8.448-8.712-12.778c-0.391-0.605-0.59-1.234-0.562-1.768
	c0.083-1.531,1.235-2.136,1.464-2.242c0.288-0.131,0.583-0.198,0.876-0.198c0.426,0,0.733,0.136,0.877,0.219
	C6.375,25.049,7.618,26.322,8.09,27.051z"/>
<path display="none" fill="#FFFFFF" d="M-212.31,77.228l5.936,8.661c0.443,0.643,1.251,0.925,1.997,0.692
	c0.747-0.23,1.255-0.92,1.255-1.7v-54.68c0-3.301,2.341-5.971,5.238-5.799c2.694,0.146,4.575,2.533,4.575,5.799v22.906
	c-0.025,0.121-0.042,0.246-0.042,0.377v17.816c0,0.984,0.798,1.783,1.782,1.783c0.984,0,1.783-0.799,1.783-1.783V57.458
	c1.018-2.247,2.918-3.641,5.022-3.641c2.347,0,4.436,1.719,5.326,4.379v15.48c0,0.983,0.797,1.78,1.781,1.78s1.782-0.797,1.782-1.78
	V57.904c1.062-1.967,2.853-3.175,4.792-3.175c2.619,0,4.891,2.146,5.555,5.229v16.615c0,0.984,0.797,1.782,1.781,1.782
	s1.783-0.798,1.783-1.782V60.288c1.066-1.225,2.475-1.92,3.936-1.92c3.172,0,5.752,3.135,5.752,6.989V95.65
	c0,7.363-3.543,19.653-11.406,24.361h-27.299c-6.768-1.823-13.52-11.881-13.615-12.022c-0.27-0.388-12.351-18.115-18.678-27.399
	c-0.839-1.297-1.268-2.644-1.206-3.79c0.178-3.285,2.647-4.58,3.14-4.807c0.616-0.282,1.248-0.425,1.878-0.425
	c0.915,0,1.573,0.293,1.883,0.47C-215.987,72.934-213.322,75.665-212.31,77.228z"/>
</svg>
