<?xml version="1.0" encoding="utf-8"?>
<!-- Generator: Adobe Illustrator 16.0.4, SVG Export Plug-In . SVG Version: 6.00 Build 0)  -->
<!DOCTYPE svg PUBLIC "-//W3C//DTD SVG 1.1//EN" "http://www.w3.org/Graphics/SVG/1.1/DTD/svg11.dtd">
<svg version="1.1" id="Ebene_1" xmlns="http://www.w3.org/2000/svg" xmlns:xlink="http://www.w3.org/1999/xlink" x="0px" y="0px"
	 width="27.512px" height="29.431px" viewBox="0 0 27.512 29.431" enable-background="new 0 0 27.512 29.431" xml:space="preserve">
<path fill="#000101" d="M1.847,16.998c-0.334,0.159-0.63,0.39-0.878,0.686c-0.541,0.648-0.939,1.782-0.43,3.02
	c0.233,0.566,0.709,1.092,1.352,1.489c7.979,4.656,9.107,5.313,9.278,5.412l0,0c0.156,0.093,3.856,2.29,6.526,1.738
	c0.046-0.009,0.089-0.025,0.131-0.044l8.178-3.894c0.089-0.042,0.166-0.106,0.223-0.186c2.13-2.995,1.209-7.713,0.127-9.984
	l-4.213-8.848c-0.809-1.699-2.688-2.501-4.188-1.787c-0.522,0.249-0.945,0.657-1.228,1.172c-0.92-0.712-2.093-0.894-3.091-0.419
	c-0.721,0.343-1.243,0.982-1.479,1.768c-0.843-0.459-1.818-0.523-2.643-0.13C8.989,7.238,8.568,7.651,8.286,8.163L5.269,1.826
	C4.55,0.315,3.027-0.369,1.647,0.198C0.162,0.806-0.419,2.625,0.322,4.182l6.804,14.289L5.81,17.708
	c-0.635-0.392-1.985-0.889-2.771-0.944C2.645,16.736,2.222,16.82,1.847,16.998z M5.218,18.697l2.938,1.705
	c0.218,0.126,0.494,0.096,0.68-0.076c0.186-0.171,0.238-0.443,0.13-0.67L1.362,3.686C0.903,2.722,1.215,1.617,2.085,1.264
	c0.807-0.332,1.688,0.103,2.143,1.058L7.414,9.01c0.009,0.04,0.022,0.078,0.04,0.116l2.478,5.203
	c0.137,0.288,0.481,0.409,0.769,0.272s0.409-0.48,0.272-0.768L9.047,9.791C9.032,8.994,9.394,8.322,10.008,8.03
	c0.685-0.326,1.534-0.115,2.164,0.538l2.153,4.521c0.137,0.287,0.48,0.409,0.768,0.272c0.287-0.137,0.409-0.48,0.272-0.767
	l-2.194-4.606c0.037-0.723,0.392-1.325,0.958-1.595c0.765-0.364,1.727-0.053,2.35,0.755L18.79,12c0.137,0.288,0.48,0.41,0.768,0.273
	c0.288-0.137,0.41-0.48,0.272-0.769l-2.264-4.755c0.142-0.506,0.456-0.905,0.882-1.108c0.926-0.441,2.116,0.116,2.651,1.241
	l4.213,8.848c1.024,2.15,1.699,6.232,0.057,8.7l-7.973,3.797c-2.23,0.409-5.601-1.589-5.648-1.618
	c-0.133-0.076-6.126-3.573-9.265-5.405c-0.425-0.262-0.737-0.595-0.879-0.939c-0.405-0.985,0.136-1.706,0.249-1.84
	c0.141-0.168,0.306-0.297,0.489-0.385c0.268-0.127,0.5-0.134,0.616-0.125C3.547,17.955,4.706,18.382,5.218,18.697z"/>
<path fill="#FFFFFF" d="M5.218,18.697l2.938,1.705c0.218,0.126,0.494,0.096,0.679-0.076c0.186-0.171,0.239-0.443,0.131-0.671
	L1.362,3.686C0.903,2.722,1.215,1.617,2.085,1.264c0.807-0.332,1.688,0.103,2.143,1.057L7.414,9.01
	c0.009,0.04,0.022,0.078,0.04,0.116l2.478,5.204c0.137,0.287,0.481,0.409,0.769,0.272s0.41-0.481,0.272-0.769L9.047,9.791
	c-0.016-0.797,0.346-1.469,0.96-1.761c0.685-0.326,1.534-0.115,2.164,0.538l2.153,4.521c0.137,0.287,0.48,0.409,0.768,0.272
	c0.287-0.137,0.409-0.48,0.272-0.767l-2.194-4.607c0.037-0.722,0.392-1.325,0.958-1.594c0.765-0.364,1.727-0.053,2.35,0.755
	L18.79,12c0.137,0.288,0.48,0.41,0.768,0.273c0.288-0.137,0.41-0.48,0.272-0.769l-2.264-4.755c0.141-0.506,0.456-0.905,0.882-1.108
	c0.926-0.441,2.116,0.116,2.651,1.241l4.213,8.848c1.024,2.15,1.699,6.232,0.057,8.7l-7.973,3.797
	c-2.23,0.409-5.601-1.589-5.648-1.618c-0.133-0.076-6.126-3.573-9.265-5.405c-0.425-0.262-0.737-0.595-0.879-0.939
	c-0.405-0.985,0.136-1.706,0.249-1.84c0.141-0.168,0.306-0.297,0.489-0.385c0.268-0.127,0.5-0.134,0.616-0.125
	C3.547,17.955,4.706,18.382,5.218,18.697z"/>
</svg>
